<svg xmlns="http://www.w3.org/2000/svg" xmlns:xlink="http://www.w3.org/1999/xlink" version="1.1" role="img" aria-label="The Paperboys mascot — two cheerful newsboy faces in flat caps" width="472.97" height="320.85" viewBox="33.71 11.43 472.97 320.85">
<defs>
<clipPath id="clip_1">
<path transform="matrix(1,0,0,-1,0,347.11)" d="M0 347.11H540.393V0H0Z"/>
</clipPath>
</defs>
<g>
<g clip-path="url(#clip_1)">
<path transform="matrix(1,0,0,-1,332.2399,112.80809)" d="M0 0C-.033 .08-.067 .159-.1 .239-.222 .238-.343 .238-.464 .237-.31 .157-.154 .08 0 0" fill="#397f9b"/>
<path transform="matrix(1,0,0,-1,130.3581,188.31409)" d="M0 0C-.493-2.495-.07-5.084 .954-7.393 2.676-11.274 6.266-14.5 10.226-15.976 12.185-16.706 14.341-17.009 16.398-16.538 17.89-16.198 20.639-15.417 21.054-13.683 21.161-13.236 21.052-12.767 20.914-12.329 20.812-12.003 20.684-11.667 20.428-11.44 19.531-10.647 18.149-11.201 17.152-11.434 16.018-11.699 14.862-11.901 13.697-11.944 11.394-12.031 9.172-11.402 7.404-9.887 4.35-7.27 2.871-3.278 4.117 .633 4.908 3.116 6.151 5.645 8.551 6.933 13.823 9.763 19.721 5.552 23.278 1.894 23.825 1.331 24.617 .864 25.366 1.098 25.818 1.238 26.165 1.615 26.387 2.033 26.588 2.41 26.705 2.838 26.672 3.263 26.626 3.868 26.288 4.412 25.906 4.883 24.098 7.109 22.311 9.077 19.618 10.248 17.006 11.385 14.194 11.606 11.531 11.09 6.02 10.023 1.146 5.801 0 0" fill="#397f9b"/>
<path transform="matrix(1,0,0,-1,174.7176,270.6966)" d="M0 0C-1.115-.988-2.778-1.421-4.156-1.895-5.814-2.467-7.539-2.83-9.269-3.103-21.606-5.046-34.266-2.751-46.157 1.069-52.567 3.129-58.872 5.65-64.579 9.221-70.428 12.882-75.772 17.741-79.197 23.792-79.68 24.646-75.034 27.848-74.405 28.207-70.002 30.719-65.116 32.33-60.141 32.824-55.282 33.307-50.337 32.725-45.673 30.874-42.936 29.788-40.969 28.293-39.38 25.832-40.902 24.758-43.208 25.125-44.906 24.361-45.476 24.105-46.039 23.78-46.409 23.276-47.594 21.66-46.247 20.618-44.7 20.861-39.227 21.723-33.703 22.854-28.193 23.282-22.89 23.693-17.504 22.223-12.987 19.457-7.489 16.09-3.239 10.899-.409 5.106 .362 3.528 1.57 1.391 0 0M-23.774 38.994C-35.012 42.499-44.718 47.923-52.911 54.513-54.561 55.84-56.084 57.313-57.577 58.813-60.623 61.874-63.585 65.082-67.245 67.432-71.459 70.137-76.691 71.892-81.688 71.078-82.52 70.943-83.345 70.736-84.157 70.451-87.716 69.202-90.868 66.916-92.583 63.523-94.067 60.585-94.579 57.236-94.621 53.973-94.722 45.956-92.349 37.548-88.698 30.443-78.352 10.306-58.133-1.534-32.641-6.612-15.824-9.962 3.257-6.184 9.797 3.206 14.392 9.805 15.232 21.303 10.114 27.909 3.777 36.09-12.758 35.559-23.774 38.994" fill="#397f9b"/>
<path transform="matrix(1,0,0,-1,108.8429,178.34958)" d="M0 0C.637-.644 1.557-.945 2.461-1.005 6.448-1.266 8.908 1.613 9.88 5.205 10.705 8.253 10.849 11.511 11.731 14.518 12.516 17.193 13.633 19.85 14.906 22.337 17.351 27.115 20.57 31.421 23.415 35.958 24.649 37.924 25.738 40.123 25.93 42.474 26.092 44.471 25.254 46.324 23.547 47.433 22.132 48.352 20.556 48.442 19.065 48.015 18.203 47.769 17.37 47.35 16.613 46.82 9.782 42.034 4.348 35.233 2.005 27.166 1.62 25.84 2.662 25.115 3.346 24.08 3.559 23.758 4.926 20.937 4.413 20.756 2.618 20.122 .823 19.489-.971 18.856-1.441 18.69-1.872 14.657-1.953 14.156-2.643 9.913-2.655 5.581-.948 1.565-.708 1-.431 .436 0 0" fill="#397f9b"/>
<path transform="matrix(1,0,0,-1,210.8287,148.91829)" d="M0 0C-1.206 .352-2.348 .264-3.427-.086-4.827-.541-6.119-1.436-7.304-2.38-14.221-7.889-20.621-15.246-22.197-24.194-19.565-28.48-18.324-30.877-25.047-32.111-25.547-32.203-26.171-35.03-26.288-35.469-26.672-36.909-26.933-38.383-27.101-39.864-27.453-42.969-27.476-46.404-26.583-49.426-26.111-51.021-25.232-52.551-23.862-53.496-21.963-54.806-19.302-54.769-17.303-53.618-12.486-50.846-12.931-43.78-11.746-39.079-9.017-28.255-3.657-21.082 1.556-13.109 2.999-10.902 4.392-8.275 4.379-5.569 4.366-2.99 2.463-.719 0 0" fill="#397f9b"/>
<path transform="matrix(1,0,0,-1,289.2386,198.38928)" d="M0 0C-.493-2.495-.07-5.084 .954-7.393 2.358-10.556 5.01-13.267 8.085-14.967 8.782-15.353 9.494-15.703 10.226-15.976 12.185-16.706 14.341-17.009 16.398-16.538 17.89-16.198 20.639-15.417 21.054-13.683 21.161-13.236 21.052-12.767 20.914-12.329 20.812-12.003 20.684-11.667 20.428-11.44 19.531-10.647 18.149-11.201 17.152-11.434 16.018-11.699 14.862-11.901 13.697-11.944 12.799-11.978 11.923-11.867 11.072-11.673 9.74-11.37 8.482-10.811 7.404-9.887 4.35-7.27 2.871-3.278 4.117 .633 4.908 3.116 6.151 5.645 8.551 6.933 12.536 9.072 16.877 7.188 20.296 4.561 21.4 3.712 22.41 2.787 23.278 1.894 23.825 1.331 24.617 .864 25.366 1.098 25.818 1.238 26.165 1.615 26.387 2.033 26.588 2.41 26.705 2.838 26.672 3.263 26.626 3.868 26.288 4.412 25.906 4.883 24.648 6.432 23.381 7.836 21.832 8.954 21.154 9.442 20.437 9.892 19.618 10.248 17.006 11.385 14.194 11.606 11.531 11.09 6.02 10.023 1.146 5.801 0 0" fill="#397f9b"/>
<path transform="matrix(1,0,0,-1,267.7234,188.42479)" d="M0 0C.637-.644 1.557-.945 2.461-1.005 6.448-1.266 8.908 1.613 9.88 5.205 10.705 8.253 10.849 11.511 11.731 14.518 12.516 17.193 13.633 19.85 14.906 22.337 15.832 24.146 16.885 25.878 17.97 27.59 18.844 28.969 19.735 30.337 20.639 31.697 21.578 33.109 22.515 34.522 23.415 35.958 24.649 37.924 25.738 40.123 25.93 42.474 26.092 44.471 25.254 46.324 23.547 47.433 22.132 48.352 20.556 48.442 19.065 48.015 18.203 47.769 17.37 47.35 16.613 46.82 13.453 44.606 10.613 41.944 8.219 38.942 7.245 37.721 6.347 36.446 5.539 35.112 4.038 32.635 2.824 29.984 2.005 27.166 1.62 25.84 2.662 25.115 3.346 24.08 3.559 23.758 4.926 20.937 4.413 20.756 2.618 20.122 .823 19.489-.971 18.856-1.441 18.69-1.872 14.657-1.953 14.156-2.643 9.913-2.655 5.581-.948 1.565-.708 1-.431 .436 0 0" fill="#397f9b"/>
<path transform="matrix(1,0,0,-1,369.7091,158.99349)" d="M0 0C-1.206 .352-2.348 .264-3.427-.086-4.826-.541-6.119-1.436-7.304-2.38-14.221-7.889-20.621-15.246-22.197-24.194-19.565-28.48-18.324-30.877-25.047-32.111-25.547-32.203-26.171-35.03-26.288-35.469-26.672-36.909-26.933-38.383-27.101-39.864-27.453-42.969-27.476-46.404-26.583-49.426-26.111-51.021-25.232-52.551-23.862-53.496-21.963-54.806-19.302-54.769-17.302-53.618-12.486-50.846-12.931-43.78-11.746-39.079-9.017-28.255-3.657-21.082 1.556-13.109 2.999-10.902 4.392-8.275 4.379-5.569 4.366-2.99 2.463-.719 0 0" fill="#397f9b"/>
<path transform="matrix(1,0,0,-1,473.8571,182.9356)" d="M0 0C-.086 .054-.18 .111-.266 .165-20.599 12.797-49.592 29.997-65.793 37.878-68.531 39.209-70.945 40.305-72.846 41.036-90.871 47.963-109.981 50.424-128.645 54.748-129.923 55.044-131.185 55.392-132.454 55.717-134.088 56.135-135.716 56.57-137.334 57.04-143.839 58.93-150.222 61.226-156.405 64.129-159.577 65.616-162.679 67.261-165.76 68.95-166.247 69.218-166.737 69.481-167.224 69.751-171.842 72.32-176.408 74.999-181.011 77.585-190.252 82.78-199.698 86.996-209.539 89.728-217.403 91.912-225.518 93.151-233.987 93.172-241.762 93.188-249.517 92.125-257.095 90.178-258.201 89.895-259.301 89.579-260.383 89.22-260.784 89.087-261.179 88.942-261.574 88.796-264.599 87.681-267.447 86.173-269.818 83.932-269.369 86.686-267.834 89.34-266.047 91.22-260.169 97.413-249.802 99.008-242.095 100.582-232.462 102.545-223.106 102.22-213.75 99.287-212.52 98.901-211.308 98.437-210.088 98.005-202.466 95.3-195.037 91.811-187.695 88.45-181.916 85.803-176.2 83.008-170.512 80.154-167.642 78.714-164.767 77.284-161.918 75.799-158.323 73.923-154.733 72.035-151.125 70.19-150.594 69.918-150.066 69.639-149.533 69.37-148.666 68.931-147.789 68.515-146.919 68.085-144.451 66.864-141.963 65.689-139.454 64.564-138.63 64.195-137.817 63.803-136.989 63.447-135.901 62.98-134.8 62.548-133.69 62.14-130.499 60.969-127.229 60.021-123.954 59.193-119.337 58.035-114.851 57.982-110.163 57.642-109.823 57.621-109.767 58.168-110.106 58.202-118.733 59.139-127.363 63.121-135.292 66.962-136.101 67.354-136.911 67.747-137.704 68.132-139.02 68.771-140.315 69.457-141.617 70.128-141.772 70.207-141.927 70.284-142.081 70.364-143.472 71.085-144.862 71.809-146.242 72.554-147.407 73.183-148.572 73.811-149.732 74.45-154.298 76.964-158.842 79.524-163.45 81.938-167.036 83.818-170.658 85.614-174.285 87.397-179.605 90.012-184.954 92.562-190.354 94.998-194.164 96.719-198.003 98.489-201.894 100.121-201.923 100.192-201.957 100.261-201.999 100.328-204.081 103.627-205.597 107.238-206.506 110.953-207.577 115.332-207.795 119.856-206.976 124.203-206.067 129.036-203.904 133.645-200.294 137.578-200.255 137.621-200.212 137.656-200.173 137.698-198.577 139.412-196.797 140.823-194.887 141.997-185.835 147.563-173.803 147.72-163.909 148.562-150.104 149.738-136.598 150.65-123.187 146.546-115.949 144.332-109.066 140.9-102.787 136.498-99.631 134.286-96.617 131.846-93.81 129.157-99.417 129.156-105.026 129.606-110.654 130.813-111.081 130.905-111.153 130.255-110.825 130.075-99.039 123.589-85.244 124.613-72.345 126.007-71.365 126.113-70.374 126.227-69.377 126.345-56.321 127.881-41.964 130.072-29.772 124.464-23.59 121.621-18.353 116.325-13.592 111.391-8.862 106.488-4.578 101.108-.906 95.257 6.894 82.827 10.495 67.491 9.086 52.501 9.014 51.734 10.048 51.468 10.315 52.193 12.491 58.095 13.17 64.193 12.736 70.217 13.377 68.908 13.995 67.581 14.588 66.231 17.359 59.918 20.336 53.379 21.648 46.503 23.897 34.728 9.188 13.673 0 0M-43.052-63.276C-48.429-62.059-49.562-57.44-53.503-55.042-53.82-55.253-54.136-55.464-54.453-55.675-54.664-55.886-54.875-56.097-55.086-56.308-56.628-60.775-49.901-63.862-47.802-66.126-60.058-95.86-86.596-114.883-119.378-124.083-163.214-136.387-206.37-120.422-230.921-95.097-231.924-94.062-232.896-93.013-233.836-91.949-239.476-85.558-243.961-78.655-247.009-71.51-256.288-49.763-249.728-22.341-239.092-7.219-238.198-5.949-236.294-3.951-234.151-1.774-230.07 2.373-225.11 7.182-224.523 8.933-223.362 14.844-222.201 20.757-221.04 26.668-220.048 29.869-218.408 34.043-216.358 38.561-215.749 39.904-215.096 41.279-214.419 42.668-208.46 54.897-200.131 68.254-193.486 71.64-191.808 72.063-185.263 71.235-178.969 70.542-174.386 67.925-169.821 65.267-165.205 62.766-164.597 62.437-163.975 62.161-163.364 61.845-154.886 57.456-146.117 54.259-137.146 51.728-135.689 51.317-134.229 50.915-132.762 50.535-125.579 48.675-118.286 47.148-110.925 45.689-101.248 43.768-91.586 41.761-82.157 38.754-76.469 36.941-70.909 34.716-65.442 32.259-65.447 29.622-65.676 26.912-66.171 24.134-68.489 11.129-73.1 1.122-75.356-12.287-76.614-19.768-74.068-27.17-72.822-32.872-71.595-38.488-71.672-44.59-71.872-50.925-71.133-51.558-70.394-52.191-69.655-52.825-64.824-54.391-64.908-48.247-63.321-45.541-59.646-39.273-53.897-33.865-47.486-30.339-44.201-28.532-37.571-26.494-35.451-30.656-34.763-31.428-34.25-32.695-34.817-33.823-35.011-34.065-46.454-35.459-48.436-36.356-48.541-37.095-48.647-37.834-48.752-38.573-46.244-39.911-44.809-38.761-42.102-38.256-34.355-36.814-28.99-43.28-27.85-48.708-26.04-57.324-34.199-65.279-43.052-63.276M-278.258-114.008C-334.635-129.832-389.903-98.907-405.89-61.435-415.168-39.688-408.609-12.266-397.972 2.856-395.377 6.546-384.298 16.339-383.404 19.008-382.243 24.919-381.081 30.832-379.92 36.743-376.037 49.277-362.304 76.651-352.367 81.715-350.688 82.138-344.144 81.31-337.849 80.618-333.266 78-328.702 75.342-324.086 72.841-306.966 63.571-288.594 59.489-269.806 55.764-260.129 53.843-250.466 51.836-241.037 48.829-239.813 48.439-238.607 47.989-237.393 47.565-237.518 43.268-236.996 38.796-235.608 34.269-234.03 29.12-230.51 24.819-228.387 20.488-228.001 19.7-227.646 18.912-227.374 18.117-226.352 15.136-228.949 10.684-232.435 6.225-236.891 .526-242.8-5.185-244.476-7.853-256.885-27.613-260.023-58.177-247.326-80.378-244.399-85.496-241.019-90.209-237.264-94.571-249.031-103.243-262.949-109.711-278.258-114.008M-391.638 75.654C-392.077 75.178-392.512 74.703-392.936 74.227-401.851 76.969-412.987 80.257-419.858 82.73-423.247 83.952-426.984 85.786-428.337 89.531-422.175 95.723-412.02 96.958-404.101 97.914-394.487 99.087-384.776 98.526-375.313 96.64-372.707 96.121-370.171 95.414-367.662 94.633-366.437 94.251-365.207 93.885-364.001 93.451-374.521 91.677-384.163 83.746-391.638 75.654M-269.456 79.456C-266.851 82.075-263.516 83.774-259.953 84.974-257.919 85.658-255.823 86.184-253.718 86.587-250.792 87.148-247.879 87.518-245.221 87.839-235.607 89.012-225.896 88.451-216.433 86.565-213.827 86.046-211.29 85.339-208.782 84.557-207.557 84.176-206.326 83.81-205.121 83.375-215.078 81.697-224.245 74.501-231.536 66.874-231.948 66.443-232.358 66.012-232.757 65.579-233.197 65.103-233.631 64.627-234.055 64.152-240.705 66.197-248.587 68.546-255.017 70.634-257.207 71.345-259.232 72.027-260.978 72.655-261.494 72.841-262.017 73.048-262.54 73.267-264.213 73.969-265.864 74.864-267.188 76.101-268.166 77.015-268.969 78.108-269.456 79.456M-320.799 85.874C-317.204 83.998-313.614 82.11-310.006 80.265-305.351 77.884-300.664 75.58-295.869 73.522-291.655 71.714-287.249 70.385-282.834 69.268-278.218 68.11-273.731 68.057-269.044 67.718-268.704 67.696-268.648 68.243-268.987 68.277-278.494 69.31-288.014 74.043-296.584 78.207-298.056 78.922-299.507 79.685-300.962 80.439-308.146 84.164-315.165 88.259-322.33 92.013-331.176 96.651-340.153 100.976-349.234 105.073-353.045 106.794-356.884 108.564-360.774 110.197-360.803 110.267-360.838 110.336-360.88 110.403-362.961 113.702-364.478 117.314-365.386 121.029-367.648 130.274-366.033 140.181-359.175 147.654-350.027 157.62-334.822 157.613-322.79 158.638-308.984 159.813-295.479 160.725-282.068 156.622-274.83 154.407-267.946 150.976-261.667 146.574-258.511 144.361-255.497 141.921-252.69 139.232-258.298 139.231-263.906 139.681-269.535 140.888-269.962 140.98-270.033 140.33-269.706 140.15-257.919 133.664-244.125 134.688-231.226 136.082-230.245 136.188-229.254 136.302-228.257 136.42-221.079 137.265-213.51 138.295-206.12 138.131-206.396 137.76-206.684 137.411-206.95 137.021-208.999 134.014-210.412 130.667-211.275 127.164-212.076 123.911-212.405 120.525-212.288 117.138-212.131 112.595-210.91 108.469-208.824 104.863-208.288 103.935-207.708 103.033-207.058 102.178-207.803 102.457-208.56 102.695-209.31 102.957-211.867 103.851-214.443 104.672-217.061 105.302-226.4 107.548-235.734 106.992-245.117 104.971-253.025 103.271-261.757 101.236-268.23 95.736-273.043 91.653-275.655 84.547-273.942 78.302-273.747 77.59-273.533 76.88-273.221 76.196-269.79 68.678-259.751 67.006-253.061 64.831-249.467 63.658-243.189 61.779-237.522 60.061-236.771 59.834-236.039 59.61-235.317 59.39-235.993 57.318-236.52 55.159-236.877 52.928-253.371 58.486-270.627 60.908-287.526 64.823-297.056 67.029-306.369 70.018-315.286 74.204-318.96 75.926-322.546 77.847-326.104 79.827-330.722 82.395-335.289 85.074-339.891 87.661-349.132 92.855-358.579 97.071-368.419 99.804-376.283 101.987-384.399 103.226-392.867 103.247-400.643 103.264-408.398 102.2-415.976 100.254-420.626 99.063-425.182 97.332-428.699 94.007-428.249 96.761-426.714 99.415-424.928 101.295-419.05 107.488-408.683 109.083-400.975 110.657-391.342 112.62-381.987 112.295-372.631 109.362-371.4 108.977-370.188 108.512-368.969 108.08-361.347 105.375-353.918 101.887-346.576 98.526M-243.838 149.548C-241.195 148.688-238.738 147.39-236.435 145.785-235.335 145.019-234.323 144.122-233.329 143.212-232.752 142.66-232.201 142.078-231.678 141.468-231.575 141.352-231.423 141.092-231.265 140.819-233.341 140.572-235.413 140.347-237.484 140.136-240.247 139.854-243.009 139.606-245.767 139.447-247.297 141.093-248.896 142.648-250.533 144.15-252.943 146.362-255.451 148.435-258.073 150.323-253.294 151.037-248.636 151.109-243.838 149.548M-84.958 139.473C-82.315 138.613-79.858 137.315-77.554 135.71-76.455 134.944-75.443 134.047-74.449 133.136-73.871 132.585-73.32 132.003-72.798 131.392-72.694 131.277-72.542 131.017-72.384 130.743-74.461 130.497-76.533 130.271-78.604 130.06-81.367 129.779-84.128 129.531-86.886 129.372-88.417 131.017-90.016 132.573-91.653 134.075-94.063 136.287-96.57 138.36-99.193 140.248-94.414 140.961-89.755 141.033-84.958 139.473M26.403 46.21C25.515 53.594 22.081 60.647 19.123 67.258 16.866 72.317 14.28 77.361 10.684 81.444 9.39 85.899 7.584 90.212 5.43 94.258-1.239 106.785-11.573 118.605-22.897 126.459-35.285 135.051-51.14 133.289-65.223 131.607-65.821 131.535-66.418 131.463-67.015 131.39-67.242 133.808-70.035 135.956-71.519 137.4-74.333 140.137-77.77 142.156-81.297 143.65-88.053 146.513-96.754 146.604-103.435 143.1-109.622 146.985-116.295 150-123.323 152.048-138.368 156.432-153.914 154.779-169.309 153.331-180.788 152.252-192.861 150.734-201.741 142.915-209.191 143.419-216.879 142.545-224.103 141.682-224.701 141.61-225.298 141.538-225.895 141.465-226.123 143.883-228.916 146.031-230.4 147.475-233.213 150.212-236.65 152.231-240.177 153.725-246.933 156.588-255.635 156.68-262.315 153.175-268.503 157.06-275.176 160.075-282.203 162.123-297.249 166.507-312.795 164.854-328.19 163.407-342.112 162.098-356.924 160.168-365.83 147.096-369.782 141.296-371.412 134.248-371.169 127.214-371.012 122.67-369.791 118.545-367.705 114.938-367.168 114.01-366.588 113.108-365.938 112.253-366.684 112.532-367.44 112.77-368.19 113.032-370.748 113.926-373.323 114.747-375.942 115.377-385.281 117.623-394.614 117.067-403.998 115.046-411.905 113.346-420.637 111.311-427.11 105.811-432.472 101.262-435.151 92.952-432.101 86.271-428.671 78.754-418.632 77.081-411.942 74.906-408.348 73.734-402.069 71.854-396.403 70.136-395.652 69.909-394.919 69.686-394.198 69.466-396.652 61.941-397.218 53.247-394.489 44.344-392.623 38.259-388.025 33.359-386.254 28.192-383.927 21.402-400.37 6.978-403.356 2.222-415.766-17.538-418.904-48.102-406.207-70.303-392.576-94.137-369.663-109.681-340.332-117.809-302.294-128.349-261.937-117.715-234.416-97.737-220.945-111.985-202.929-121.932-181.452-127.884-122.046-144.346-56.928-109.2-44.002-67.393-30.018-66.926-22.639-60.914-24.366-45.857-11.903-38.042-4.361-22.934-1.133-5.418-.656-5.717-.163-6.025 .299-6.319 1.387-5.119 2.531-3.779 3.702-2.315 14.481 11.102 27.823 34.493 26.403 46.21" fill="#397f9b"/>
<path transform="matrix(1,0,0,-1,334.1797,284.7522)" d="M0 0C-1.115-.988-2.778-1.421-4.156-1.895-5.814-2.467-7.539-2.83-9.269-3.103-21.606-5.046-34.266-2.751-46.157 1.069-52.567 3.129-58.872 5.65-64.579 9.221-70.428 12.882-75.772 17.741-79.197 23.792-79.68 24.646-75.034 27.848-74.405 28.207-70.001 30.719-65.116 32.33-60.141 32.824-55.282 33.307-50.337 32.725-45.673 30.874-42.936 29.788-40.969 28.293-39.38 25.832-40.902 24.758-43.208 25.125-44.906 24.361-45.476 24.105-46.039 23.78-46.409 23.276-47.594 21.66-46.247 20.618-44.7 20.861-39.227 21.723-33.703 22.854-28.193 23.282-22.89 23.693-17.504 22.223-12.987 19.457-7.489 16.09-3.238 10.899-.409 5.106 .362 3.528 1.57 1.391 0 0M-23.774 38.994C-35.012 42.499-44.718 47.923-52.911 54.513-54.561 55.84-56.084 57.313-57.577 58.813-60.623 61.874-63.585 65.082-67.245 67.432-71.459 70.137-76.691 71.892-81.688 71.078-82.52 70.943-83.345 70.736-84.157 70.451-87.716 69.202-90.868 66.916-92.583 63.523-94.067 60.585-94.579 57.236-94.621 53.973-94.722 45.956-92.349 37.548-88.698 30.443-78.352 10.306-58.133-1.534-32.641-6.612-15.824-9.962 3.257-6.184 9.797 3.206 14.392 9.805 15.232 21.303 10.114 27.909 3.777 36.09-12.758 35.559-23.774 38.994" fill="#397f9b"/>
</g>
</g>
</svg>
