<svg xmlns="http://www.w3.org/2000/svg" viewBox="0 0 420 280" width="420" height="280" role="img" aria-label="The Paperboys mascot — two cheerful newsboy faces in flat caps, grinning side by side">
  <defs>
    <style>
      .ink{fill:none;stroke:#16335f;stroke-width:7;stroke-linejoin:round;stroke-linecap:round}
      .skin{fill:#f0c79b}
      .mouth{fill:#16335f}
      .eye{fill:#16335f}
      .blink{fill:none;stroke:#16335f;stroke-width:6;stroke-linecap:round}
    </style>
  </defs>

  <!-- ===== BACK (left) FACE ===== -->
  <g transform="rotate(-6 150 150)">
    <!-- head -->
    <circle class="skin" cx="150" cy="150" r="72"/>
    <circle class="ink" cx="150" cy="150" r="72"/>
    <!-- flat cap -->
    <path class="skin" d="M86 112c2-30 30-52 64-52s62 22 64 52c1 9-7 12-15 9-7-3-13 2-19-1-32-12-58-3-79 1-9 2-16-1-15-9z"/>
    <path class="ink" d="M86 112c2-30 30-52 64-52s62 22 64 52c1 9-7 12-15 9-7-3-13 2-19-1-32-12-58-3-79 1-9 2-16-1-15-9z"/>
    <!-- cap brim -->
    <path class="skin" d="M196 116c20-2 34 3 34 11 0 6-9 8-20 6-9-2-18-3-26-3z"/>
    <path class="ink" d="M196 116c20-2 34 3 34 11 0 6-9 8-20 6-9-2-18-3-26-3z"/>
    <!-- cap button -->
    <circle class="eye" cx="150" cy="63" r="4"/>
    <!-- eyes -->
    <circle class="eye" cx="128" cy="150" r="6"/>
    <path class="blink" d="M168 145c5-3 12-3 17 1"/>
    <!-- open grin -->
    <path class="mouth" d="M118 176c8 26 56 26 64 0 2-6-4-9-9-7-15 6-31 6-46 0-5-2-11 1-9 7z"/>
    <path class="skin" d="M139 192c8 3 16 3 24 0-4 6-20 6-24 0z"/>
  </g>

  <!-- ===== FRONT (right) FACE ===== -->
  <g transform="rotate(7 272 138)">
    <!-- head -->
    <circle class="skin" cx="272" cy="138" r="74"/>
    <circle class="ink" cx="272" cy="138" r="74"/>
    <!-- flat cap -->
    <path class="skin" d="M206 98c2-31 31-54 66-54s64 23 66 54c1 9-7 13-16 9-7-3-13 2-20-1-33-12-60-3-82 1-9 2-17-1-16-9z"/>
    <path class="ink" d="M206 98c2-31 31-54 66-54s64 23 66 54c1 9-7 13-16 9-7-3-13 2-20-1-33-12-60-3-82 1-9 2-17-1-16-9z"/>
    <!-- cap brim -->
    <path class="skin" d="M320 101c21-2 35 3 35 12 0 6-9 8-21 6-9-2-18-3-27-3z"/>
    <path class="ink" d="M320 101c21-2 35 3 35 12 0 6-9 8-21 6-9-2-18-3-27-3z"/>
    <!-- cap button -->
    <circle class="eye" cx="272" cy="47" r="4"/>
    <!-- eyes -->
    <path class="blink" d="M243 132c5-3 12-3 17 1"/>
    <circle class="eye" cx="294" cy="137" r="6"/>
    <!-- open grin -->
    <path class="mouth" d="M238 164c9 28 60 28 68 0 2-6-4-10-10-7-16 6-33 6-49 0-6-3-11 1-9 7z"/>
    <path class="skin" d="M261 181c8 3 17 3 25 0-4 7-21 7-25 0z"/>
  </g>
</svg>
